<svg width="138" height="24" viewBox="0 0 138 24" fill="none" xmlns="http://www.w3.org/2000/svg">
<g clip-path="url(#clip0_1228_9316)">
<path d="M19.2159 0.815918H17.0285H15.3415H14.8411H12.6507H10.4632H8.27283H6.08539H4.81355H3.89795H1.70756H0V0.848303V1.00139V1.15449V1.30758V1.46067V1.61376V1.76685V1.91994V2.07304V2.22613V2.37922V2.53231V2.6854V2.83849V2.99159V3.14468V3.29777V3.45086V3.60395V3.75704V3.91013V4.06323V4.21632V4.36941V4.5225V4.67559V4.82868V4.98178V5.13487V5.28796V5.44105V5.59414V5.62947V5.74723V5.90033V6.05342V6.20651V6.3596V6.51269V6.66578V6.81887V6.97197V7.12506V7.27815V7.43124V7.58433V7.73742V7.89052V8.04361V8.1967V8.34979V8.50288V8.65597V8.80907V8.96216V9.11525V9.26834V9.41849V9.57158V9.72467V9.87776V10.0309V10.1839V10.337V10.4901V10.6432V10.7963V10.9494V11.1025V11.2556V11.4087V11.5618V11.7149V11.868V12.021V12.1741V12.3272V12.4803V12.6334V12.7865V12.9396V13.0927V13.2458V13.3989V13.552V13.7051V13.8581V14.0112V14.1643V14.3174V14.4705V14.6236V14.7767V14.9298V15.0829V15.236V15.3891V15.5422V15.6952V15.8483V16.0014V16.1545V16.1575V16.3076V16.4607V16.6138V16.7669V16.92V17.0731V17.2262V17.3793V17.5323V17.6854V17.8385V20.971H4.81355H15.3415H20.1551V19.2458V19.0927V18.9396V18.7865V18.6334V18.4803V18.3272V18.1742V18.0211V17.868V17.7149V17.5618V17.4116V17.2585V17.1055V16.9524V16.7993V16.6462V16.4931V16.34V16.1869V16.1575V16.0338V15.8807V15.7276V15.5745V15.4214V15.2684V15.1153V14.9622V14.8091V14.656V14.5029V14.3498V14.1967V14.0436V13.8905V13.7374V13.5843V13.4313V13.2782V13.1251V12.972V12.8189V12.6658V12.5127V12.3596V12.2065V12.0534V11.9003V11.7472V11.5942V11.4411V11.288V11.1349V10.9818V10.8287V10.6756V10.5225V10.3694V10.2163V10.0632V9.91015V9.75706V9.60396V9.45087V9.29778V9.14469V8.9916V8.83851V8.68541V8.53232V8.37923V8.22614V8.07599V7.9229V7.76981V7.61672V7.46363V7.31053V7.15744V7.00435V6.85126V6.69817V6.54508V6.39199V6.23889V6.0858V5.93271V5.77962V5.62947V5.62653V5.47344V5.32034V5.16725V5.01416V4.86107V4.70798V4.55489V4.40179V4.2487V4.09561V3.94252V3.78943V3.63634V3.48324V3.33015V3.17706V3.02397V2.87088V2.71779V2.5647V2.4116V2.25851V2.10542V1.95233V1.79924V1.64615V1.49305V1.33996V1.18687V1.03378V0.880687V0.815918H19.2159Z" fill="#22347F"/>
<path d="M10.0656 12.9043L7.88696 14.1644V14.8268C7.88696 15.4333 8.13132 15.9808 8.52877 16.3783C8.92622 16.7757 9.47382 17.0201 10.0803 17.0201C11.2903 17.0201 12.2736 16.0397 12.2736 14.8268V14.1644L10.095 12.9072H10.0685L10.0656 12.9043Z" fill="#28C0F1"/>
<path d="M13.8429 4.76685H6.31198C5.70551 4.76685 5.15791 5.0112 4.76046 5.40865C4.36301 5.8061 4.11865 6.3537 4.11865 6.96018C4.11865 8.17019 5.10197 9.15351 6.31198 9.15351H7.88412V11.6442L10.0627 12.9043H10.0892L12.2678 11.6471V9.15351H13.84C14.4464 9.15351 14.994 8.90915 15.3915 8.5117C15.7889 8.11425 16.0333 7.56666 16.0333 6.96018C16.0333 5.75016 15.0529 4.76685 13.84 4.76685H13.8429Z" fill="white"/>
<path d="M29.4052 18.3392V5.73855H24.8242V2.7356H37.8841V5.74149H33.3031V18.3421H29.4022L29.4052 18.3392Z" fill="#28C0F1"/>
<path d="M43.5544 18.5804C41.3405 18.5804 39.7095 18.0682 38.6585 17.0407C37.6074 16.0162 37.0834 14.5324 37.0834 12.5952C37.0834 10.658 37.6133 9.19476 38.6702 8.16139C39.7272 7.12802 41.3552 6.60986 43.5515 6.60986C45.7478 6.60986 47.3994 7.12802 48.4593 8.16139C49.5162 9.19476 50.0461 10.6727 50.0461 12.5952C50.0461 14.5176 49.5221 16.0162 48.471 17.0407C47.42 18.0682 45.7802 18.5804 43.5515 18.5804H43.5544ZM43.5544 15.5274C44.4583 15.5274 45.106 15.3008 45.4916 14.8503C45.8803 14.3969 46.0746 13.6462 46.0746 12.5981C46.0746 11.55 45.8803 10.7963 45.4916 10.3459C45.103 9.8925 44.4583 9.66875 43.5544 9.66875C42.6506 9.66875 42.0265 9.89544 41.6408 10.3459C41.2522 10.7993 41.0579 11.55 41.0579 12.5981C41.0579 13.6462 41.2522 14.3999 41.6408 14.8503C42.0294 15.3037 42.6653 15.5274 43.5544 15.5274Z" fill="#28C0F1"/>
<path d="M52.0361 23.5736V6.85422H55.4277L55.622 7.84637C56.0901 7.45775 56.6171 7.15452 57.1971 6.93666C57.78 6.71879 58.4571 6.60986 59.2314 6.60986C60.8625 6.60986 62.1549 7.05147 63.1088 7.93175C64.0627 8.81203 64.5396 10.287 64.5396 12.3537C64.5396 14.4205 64.0509 15.9573 63.0735 17.0054C62.096 18.0564 60.7506 18.5804 59.0401 18.5804C57.8271 18.5804 56.7937 18.3302 55.94 17.8297V23.5736H52.0391H52.0361ZM58.045 15.7218C59.726 15.7218 60.5651 14.5736 60.5651 12.2801C60.5651 11.182 60.3708 10.4401 59.9822 10.0515C59.5936 9.66286 58.9724 9.46855 58.1156 9.46855C57.2589 9.46855 56.5641 9.76002 55.9341 10.34V14.9916C56.2403 15.2183 56.5523 15.395 56.8674 15.5245C57.1824 15.654 57.5739 15.7188 58.042 15.7188L58.045 15.7218Z" fill="#28C0F1"/>
<path d="M67.1305 18.3391V9.73649H65.4347L65.7733 6.85425H71.0314V18.3391H67.1305Z" fill="#28C0F1"/>
<path d="M71.0549 2.10547H66.8154V5.03776H71.0549V2.10547Z" fill="#28C0F1"/>
<path d="M78.2532 18.5804C76.8312 18.5804 75.786 18.2183 75.1148 17.4911C74.4435 16.764 74.1079 15.763 74.1079 14.4852V9.81006H72.5564V6.85421H74.1079V4.4548L78.0088 3.4126V6.85421H80.7939L80.6231 9.81006H78.0059V14.2203C78.0059 14.7708 78.1442 15.1535 78.418 15.3714C78.6918 15.5893 79.104 15.6982 79.6545 15.6982C80.1227 15.6982 80.5996 15.6187 81.0854 15.4568V18.0976C80.3258 18.4215 79.3808 18.5834 78.2502 18.5834L78.2532 18.5804Z" fill="#28C0F1"/>
<path d="M86.5378 18.5805C85.1806 18.5805 84.1237 18.1978 83.3641 17.4294C82.6045 16.661 82.2247 15.5422 82.2247 14.0731V6.85133H86.1256V13.8553C86.1256 14.503 86.2817 14.974 86.5967 15.2714C86.9117 15.5717 87.3827 15.7189 88.0128 15.7189C88.4809 15.7189 88.9254 15.6217 89.3464 15.4274C89.7674 15.2331 90.1119 14.9917 90.3886 14.7002V6.84839H94.2895V18.3332H90.6565L90.5358 17.3646C90.0677 17.7208 89.5025 18.0094 88.8401 18.236C88.1776 18.4627 87.4092 18.5746 86.5378 18.5746V18.5805Z" fill="#28C0F1"/>
<path d="M96.7626 23.5736V6.85422H100.154L100.348 7.84637C100.817 7.45775 101.344 7.15452 101.924 6.93666C102.506 6.71879 103.184 6.60986 103.958 6.60986C105.589 6.60986 106.881 7.05147 107.835 7.93175C108.789 8.81203 109.266 10.287 109.266 12.3537C109.266 14.4205 108.777 15.9573 107.8 17.0054C106.822 18.0564 105.477 18.5804 103.767 18.5804C102.554 18.5804 101.52 18.3302 100.666 17.8297V23.5736H96.7655H96.7626ZM102.771 15.7218C104.452 15.7218 105.292 14.5736 105.292 12.2801C105.292 11.182 105.097 10.4401 104.709 10.0515C104.32 9.66286 103.699 9.46855 102.842 9.46855C101.985 9.46855 101.291 9.76002 100.661 10.34V14.9916C100.967 15.2183 101.279 15.395 101.594 15.5245C101.909 15.654 102.3 15.7188 102.768 15.7188L102.771 15.7218Z" fill="#28C0F1"/>
<path d="M111.253 18.339V6.85422H114.889L115.01 7.84637C115.478 7.52252 116.067 7.23695 116.779 6.9867C117.489 6.73646 118.248 6.60986 119.058 6.60986C120.545 6.60986 121.625 6.9661 122.305 7.67562C122.982 8.38808 123.324 9.48622 123.324 10.97V18.3361H119.423V11.285C119.423 10.6403 119.285 10.1781 119.011 9.90428C118.737 9.63048 118.243 9.49211 117.533 9.49211C117.112 9.49211 116.685 9.58926 116.249 9.78357C115.814 9.97788 115.449 10.2193 115.16 10.5108V18.3361H111.259L111.253 18.339Z" fill="#28C0F1"/>
<path d="M130.614 22.6049C130.048 22.6049 129.451 22.5814 128.821 22.5313C128.191 22.4813 127.593 22.4106 127.028 22.3135C126.462 22.2163 125.977 22.1044 125.573 21.9749V19.3105C126.218 19.5195 126.995 19.6815 127.899 19.7963C128.803 19.9082 129.636 19.967 130.396 19.967C131.382 19.967 132.121 19.9141 132.613 19.811C133.104 19.705 133.352 19.5225 133.352 19.2664C133.352 19.0397 133.254 18.8866 133.06 18.8071C132.866 18.7247 132.486 18.6864 131.921 18.6864H128.747C127.714 18.6864 126.91 18.5009 126.336 18.1299C125.762 17.759 125.476 17.2173 125.476 16.5078C125.476 16.022 125.626 15.5627 125.924 15.127C126.221 14.6913 126.663 14.3674 127.246 14.1584C126.583 13.8198 126.083 13.39 125.744 12.8748C125.405 12.3566 125.235 11.703 125.235 10.9111C125.235 9.42434 125.715 8.33797 126.677 7.65201C127.637 6.96604 129.047 6.62158 130.905 6.62158C131.294 6.62158 131.723 6.65102 132.2 6.70696C132.677 6.7629 133.028 6.81589 133.254 6.86594H137.665L137.567 9.28891H135.895C136.299 9.69225 136.502 10.2899 136.502 11.0818C136.502 12.1976 136.143 13.0926 135.424 13.7727C134.706 14.4499 133.619 14.7914 132.165 14.7914C131.924 14.7914 131.685 14.7796 131.45 14.756C131.214 14.7325 130.985 14.7119 130.758 14.6942C130.337 14.7413 129.978 14.8326 129.68 14.9621C129.38 15.0917 129.233 15.2771 129.233 15.5186C129.233 15.7129 129.309 15.8424 129.462 15.9072C129.616 15.9719 129.845 16.0043 130.151 16.0043H133.084C134.261 16.0043 135.18 16.2752 135.833 16.8169C136.487 17.3586 136.814 18.1447 136.814 19.178C136.814 21.4715 134.747 22.6197 130.611 22.6197L130.614 22.6049ZM130.929 12.6216C131.785 12.6216 132.374 12.4773 132.698 12.1859C133.022 11.8944 133.184 11.4116 133.184 10.7315C133.184 10.0514 133.019 9.55976 132.686 9.25358C132.356 8.9474 131.771 8.79431 130.929 8.79431C130.137 8.79431 129.568 8.94445 129.221 9.2418C128.874 9.5421 128.7 10.0367 128.7 10.7315C128.7 11.3763 128.862 11.8532 129.186 12.1623C129.51 12.4685 130.09 12.6216 130.932 12.6216H130.929Z" fill="#28C0F1"/>
</g>
<defs>
<clipPath id="clip0_1228_9316">
<rect width="137.665" height="22.7577" fill="white" transform="translate(0 0.815918)"/>
</clipPath>
</defs>
</svg>
