<svg width="24" height="24" viewBox="0 0 24 24" fill="none" xmlns="http://www.w3.org/2000/svg">
<g id="Group">
<g id="Mask group">
<mask id="mask0_768_3817" style="mask-type:luminance" maskUnits="userSpaceOnUse" x="0" y="0" width="24" height="24">
<g id="Group_2">
<path id="Vector" d="M0.700378 0.75238H23.9347V23.9867H0.700378V0.75238Z" fill="white"/>
<g id="Group_3">
<path id="Vector_2" fill-rule="evenodd" clip-rule="evenodd" d="M4.49832 12.3695C4.49832 14.4433 5.32213 16.4322 6.78852 17.8986C8.25491 19.365 10.2438 20.1888 12.3176 20.1888C14.3913 20.1888 16.3802 19.365 17.8466 17.8986C19.313 16.4322 20.1368 14.4433 20.1368 12.3695C20.1368 10.2957 19.313 8.30689 17.8466 6.84049C16.3802 5.3741 14.3913 4.55029 12.3176 4.55029C10.2438 4.55029 8.25491 5.3741 6.78852 6.84049C5.32213 8.30689 4.49832 10.2957 4.49832 12.3695ZM18.7964 12.3695C18.7964 14.0878 18.1138 15.7357 16.8988 16.9507C15.6837 18.1657 14.0358 18.8483 12.3176 18.8483C10.5993 18.8483 8.95137 18.1657 7.73636 16.9507C6.52135 15.7357 5.83876 14.0878 5.83876 12.3695C5.83876 10.6512 6.52135 9.00334 7.73636 7.78833C8.95137 6.57332 10.5993 5.89073 12.3176 5.89073C14.0358 5.89073 15.6837 6.57332 16.8988 7.78833C18.1138 9.00334 18.7964 10.6512 18.7964 12.3695Z" fill="black"/>
<path id="Vector_3" fill-rule="evenodd" clip-rule="evenodd" d="M8.96646 12.3695C8.96646 16.4105 10.2989 19.7419 12.3176 19.7419C14.3363 19.7419 15.6687 16.4105 15.6687 12.3695C15.6687 8.32854 14.3363 4.9971 12.3176 4.9971C10.2989 4.9971 8.96646 8.32854 8.96646 12.3695ZM14.3282 12.3695C14.3282 15.7313 13.2603 18.4015 12.3176 18.4015C11.3748 18.4015 10.3069 15.7313 10.3069 12.3695C10.3069 9.0077 11.3748 6.33754 12.3176 6.33754C13.2603 6.33754 14.3282 9.0077 14.3282 12.3695Z" fill="black"/>
<path id="Vector_4" d="M6.60014 8.31873L7.49913 7.32501C7.58849 7.40544 7.6859 7.48587 7.78956 7.56361C8.92536 8.41434 10.7385 8.9398 12.7179 8.9398C14.4078 8.9398 15.9814 8.55822 17.1244 7.90498C17.3996 7.7477 17.6445 7.57702 17.8563 7.39561L18.7267 8.41524C18.4359 8.66188 18.1223 8.88032 17.7901 9.06759C16.4354 9.84325 14.6321 10.2793 12.7179 10.2793C10.4642 10.2793 8.37042 9.67346 6.9853 8.63596C6.85211 8.53619 6.72359 8.43033 6.60014 8.31873ZM6.60014 16.4346L7.49913 17.4284C7.58849 17.347 7.6859 17.2675 7.78956 17.1898C8.92536 16.339 10.7385 15.8136 12.7179 15.8136C14.4078 15.8136 15.9814 16.1952 17.1244 16.8484C17.3996 17.0057 17.6445 17.1764 17.8563 17.3578L18.7267 16.3381C18.4355 16.092 18.122 15.8736 17.7901 15.6858C16.4354 14.9101 14.6321 14.474 12.7179 14.474C10.4642 14.474 8.37042 15.0799 6.9853 16.1174C6.8521 16.2172 6.72358 16.323 6.60014 16.4346ZM4.94514 13.0398V11.6993H19.69V13.0398H4.94514Z" fill="black"/>
</g>
</g>
</mask>
<g mask="url(#mask0_768_3817)">
<path id="Vector_5" d="M12.3175 23.9867C18.7335 23.9867 23.9347 18.7855 23.9347 12.3695C23.9347 5.95356 18.7335 0.75238 12.3175 0.75238C5.90155 0.75238 0.700378 5.95356 0.700378 12.3695C0.700378 18.7855 5.90155 23.9867 12.3175 23.9867Z" fill="url(#paint0_linear_768_3817)"/>
</g>
</g>
</g>
<defs>
<linearGradient id="paint0_linear_768_3817" x1="8.20867" y1="0.75238" x2="16.0619" y2="28.9529" gradientUnits="userSpaceOnUse">
<stop stop-color="#22347F"/>
<stop offset="1" stop-color="#28C0F1"/>
</linearGradient>
</defs>
</svg>
