<svg width="17" height="27" viewBox="0 0 17 27" fill="none" xmlns="http://www.w3.org/2000/svg">
<path id="Vector" fill-rule="evenodd" clip-rule="evenodd" d="M4.09257 0.752396C3.25076 0.752396 2.44343 1.0868 1.84818 1.68206C1.25293 2.27731 0.918518 3.08464 0.918518 3.92645V22.9708C0.918518 23.8126 1.25293 24.6199 1.84818 25.2152C2.44343 25.8104 3.25076 26.1448 4.09257 26.1448H13.6147C14.4566 26.1448 15.2639 25.8104 15.8591 25.2152C16.4544 24.6199 16.7888 23.8126 16.7888 22.9708V3.92645C16.7888 3.08464 16.4544 2.27731 15.8591 1.68206C15.2639 1.0868 14.4566 0.752396 13.6147 0.752396H4.09257ZM8.85366 22.9708C9.27457 22.9708 9.67823 22.8036 9.97586 22.506C10.2735 22.2083 10.4407 21.8047 10.4407 21.3838C10.4407 20.9629 10.2735 20.5592 9.97586 20.2616C9.67823 19.9639 9.27457 19.7967 8.85366 19.7967C8.43275 19.7967 8.02909 19.9639 7.73146 20.2616C7.43384 20.5592 7.26663 20.9629 7.26663 21.3838C7.26663 21.8047 7.43384 22.2083 7.73146 22.506C8.02909 22.8036 8.43275 22.9708 8.85366 22.9708Z" fill="url(#paint0_linear_768_3772)"/>
<defs>
<linearGradient id="paint0_linear_768_3772" x1="18.6245" y1="-0.765639" x2="8.85366" y2="26.1448" gradientUnits="userSpaceOnUse">
<stop offset="0.181626" stop-color="#28C0F1"/>
<stop offset="1" stop-color="#22347F"/>
</linearGradient>
</defs>
</svg>
