<svg width="21" height="21" viewBox="0 0 21 21" fill="none" xmlns="http://www.w3.org/2000/svg">
<g id="Group">
<path id="Vector" fill-rule="evenodd" clip-rule="evenodd" d="M20.5594 14.4668V10.4772C20.5594 7.65665 20.5594 6.24535 19.6827 5.36965C18.8598 4.54581 17.5652 4.49594 15.0738 4.49295V20.4511C17.5652 20.4481 18.8598 20.3982 19.6827 19.5744C20.5594 18.6987 20.5594 17.2864 20.5594 14.4668ZM17.5672 9.47986C17.8318 9.47986 18.0854 9.58494 18.2725 9.77199C18.4595 9.95903 18.5646 10.2127 18.5646 10.4772C18.5646 10.7418 18.4595 10.9955 18.2725 11.1825C18.0854 11.3695 17.8318 11.4746 17.5672 11.4746C17.3027 11.4746 17.049 11.3695 16.862 11.1825C16.6749 10.9955 16.5698 10.7418 16.5698 10.4772C16.5698 10.2127 16.6749 9.95903 16.862 9.77199C17.049 9.58494 17.3027 9.47986 17.5672 9.47986ZM17.5672 13.4694C17.8318 13.4694 18.0854 13.5745 18.2725 13.7615C18.4595 13.9486 18.5646 14.2023 18.5646 14.4668C18.5646 14.7313 18.4595 14.985 18.2725 15.172C18.0854 15.3591 17.8318 15.4642 17.5672 15.4642C17.3027 15.4642 17.049 15.3591 16.862 15.172C16.6749 14.985 16.5698 14.7313 16.5698 14.4668C16.5698 14.2023 16.6749 13.9486 16.862 13.7615C17.049 13.5745 17.3027 13.4694 17.5672 13.4694Z" fill="url(#paint0_linear_768_3801)"/>
<path id="Vector_2" d="M14.1462 1.98752L11.9968 4.49294H13.5777V20.4511H6.59602C3.77542 20.4511 2.36413 20.4511 1.48842 19.5744C0.611725 18.6987 0.611725 17.2874 0.611725 14.4678V10.4782C0.611725 7.65564 0.611725 6.24534 1.48842 5.36964C2.36413 4.49294 3.77542 4.49294 6.59602 4.49294H9.17325L7.02489 1.98752C6.90334 1.83609 6.84544 1.64333 6.86342 1.44998C6.8814 1.25664 6.97387 1.07786 7.12126 0.951452C7.26866 0.825039 7.45943 0.760896 7.65326 0.772582C7.84709 0.784268 8.02877 0.870867 8.15991 1.01407L10.5855 3.84265L13.0092 1.01407C13.1383 0.863295 13.322 0.769973 13.5199 0.754635C13.7178 0.739297 13.9136 0.803201 14.0644 0.932288C14.2152 1.06137 14.3085 1.24507 14.3239 1.44296C14.3392 1.64086 14.2753 1.83674 14.1462 1.98752Z" fill="url(#paint1_linear_768_3801)"/>
</g>
<defs>
<linearGradient id="paint0_linear_768_3801" x1="15.4305" y1="26.3762" x2="26.3694" y2="22.3772" gradientUnits="userSpaceOnUse">
<stop stop-color="#22347F"/>
<stop offset="1" stop-color="#28C0F1"/>
</linearGradient>
<linearGradient id="paint1_linear_768_3801" x1="1.50349" y1="27.765" x2="21.5287" y2="12.9383" gradientUnits="userSpaceOnUse">
<stop stop-color="#22347F"/>
<stop offset="1" stop-color="#28C0F1"/>
</linearGradient>
</defs>
</svg>
