<svg width="21" height="20" viewBox="0 0 21 20" fill="none" xmlns="http://www.w3.org/2000/svg">
<path d="M6.98072 15.0004L10.4507 11.5304L13.9207 15.0004L15.2702 13.6509L11.8002 10.1809L15.2702 6.71092L13.9207 5.36147L10.4507 8.83148L6.98072 5.36147L5.63128 6.71092L9.10128 10.1809L5.63128 13.6509L6.98072 15.0004ZM10.4507 19.8198C9.11735 19.8198 7.86429 19.5666 6.69156 19.0603C5.51882 18.5539 4.49871 17.8673 3.63121 17.0004C2.76371 16.1329 2.07709 15.1128 1.57137 13.9401C1.06565 12.7674 0.812471 11.5143 0.811829 10.1809C0.811829 8.84754 1.06501 7.59448 1.57137 6.42175C2.07774 5.24902 2.76435 4.2289 3.63121 3.3614C4.49871 2.4939 5.51882 1.80729 6.69156 1.30157C7.86429 0.795847 9.11735 0.542665 10.4507 0.542023C11.7841 0.542023 13.0372 0.795205 14.2099 1.30157C15.3826 1.80793 16.4027 2.49454 17.2702 3.3614C18.1377 4.2289 18.8247 5.24902 19.331 6.42175C19.8374 7.59448 20.0903 8.84754 20.0896 10.1809C20.0896 11.5143 19.8364 12.7674 19.3301 13.9401C18.8237 15.1128 18.1371 16.1329 17.2702 17.0004C16.4027 17.8679 15.3826 18.5549 14.2099 19.0612C13.0372 19.5676 11.7841 19.8205 10.4507 19.8198Z" fill="#AAAAAA" fill-opacity="0.5"/>
</svg>
