<svg width="75" height="70" viewBox="0 0 75 70" fill="none" xmlns="http://www.w3.org/2000/svg">
<path d="M61.347 57.1779C61.347 57.1779 61.6757 56.9581 62.1864 56.574C69.8244 50.7066 74.6087 42.2109 74.6087 32.7643C74.6087 15.1343 57.9127 0.817505 37.316 0.817505C16.7193 0.817505 0 15.1343 0 32.7643C0 50.392 16.696 64.7088 37.2927 64.7088C39.9296 64.7088 42.5619 64.4798 45.1476 63.9985L45.9613 63.8666C51.1956 67.2261 58.822 70.0001 65.4994 70.0001C67.5768 70.0001 68.5491 68.3135 67.2248 66.6014C65.2103 64.142 62.4288 60.2157 61.347 57.1802V57.1779ZM56.8052 43.222C54.5856 46.5143 47.6866 52.1272 37.3673 52.1272H37.2204C26.8755 52.1272 19.9881 46.4889 17.7779 43.222C17.3365 42.7203 17.0422 42.1081 16.9268 41.4521C16.8978 41.0529 17.0283 40.6584 17.2901 40.354C17.5519 40.0497 17.924 39.8598 18.3258 39.8256C18.3467 39.814 18.3607 39.814 18.3841 39.814C18.7501 39.8327 19.1033 39.9538 19.4029 40.1633C24.4559 44.2504 30.7715 46.4887 37.2904 46.5027C43.8338 46.5748 50.1875 44.3222 55.2034 40.1518C55.4683 39.9114 55.8144 39.7784 56.1734 39.7793C57.001 39.7793 57.6562 40.4294 57.6818 41.2392C57.5813 41.9629 57.292 42.648 56.8425 43.2266L56.8052 43.222Z" fill="white"/>
</svg>
