<svg width="29" height="30" viewBox="0 0 29 30" fill="none" xmlns="http://www.w3.org/2000/svg">
<path d="M19.4216 0H13.2429C10.4439 0 8.22562 0 6.49132 0.222017C4.70466 0.450035 3.25915 0.930072 2.11987 2.01166C0.979014 3.09324 0.472846 4.46585 0.23325 6.16098C1.18221e-07 7.80811 0 9.91277 0 12.5695V21.3272C0 23.5893 1.45979 25.5275 3.53365 26.3405C3.42734 24.9754 3.42734 23.0628 3.42734 21.4697V13.9541C3.42734 12.0324 3.42734 10.3748 3.61458 9.0487C3.81609 7.62659 4.2699 6.26449 5.43456 5.1589C6.59922 4.05332 8.03521 3.62278 9.53309 3.43077C10.9294 3.25375 12.6748 3.25375 14.7011 3.25375H19.5723C21.597 3.25375 23.3393 3.25375 24.7372 3.43077C24.3182 2.42025 23.5871 1.55246 22.6389 0.940509C21.6908 0.328555 20.5696 0.000814259 19.4216 0Z" fill="#28C0F1"/>
<path d="M5.70221 14.0944C5.70221 10.005 5.70221 7.96039 7.04141 6.68979C8.37903 5.41919 10.5322 5.41919 14.8418 5.41919H19.4116C23.7196 5.41919 25.8743 5.41919 27.2135 6.68979C28.5512 7.96039 28.5512 10.005 28.5512 14.0944V21.3249C28.5512 25.4142 28.5512 27.4589 27.2135 28.7295C25.8743 30.0001 23.7196 30.0001 19.4116 30.0001H14.8418C10.5338 30.0001 8.37903 30.0001 7.04141 28.7295C5.70221 27.4589 5.70221 25.4142 5.70221 21.3249V14.0944Z" fill="#28C0F1"/>
</svg>
