<svg width="18" height="19" viewBox="0 0 18 19" fill="none" xmlns="http://www.w3.org/2000/svg">
<path d="M8.94903 0.353455C7.17908 0.353455 5.44888 0.878306 3.97722 1.86164C2.50556 2.84497 1.35854 4.24262 0.681208 5.87784C0.00387747 7.51306 -0.173343 9.31241 0.171957 11.0483C0.517257 12.7843 1.36957 14.3789 2.62111 15.6304C3.87266 16.8819 5.46722 17.7343 7.20316 18.0796C8.9391 18.4249 10.7385 18.2476 12.3737 17.5703C14.0089 16.893 15.4065 15.746 16.3899 14.2743C17.3732 12.8026 17.8981 11.0724 17.8981 9.30248C17.8981 6.92905 16.9552 4.65283 15.2769 2.97456C13.5987 1.2963 11.3225 0.353455 8.94903 0.353455ZM9.84393 14.6719H8.05413V12.8821H9.84393V14.6719ZM9.84393 11.0923H8.05413V3.93307H9.84393V11.0923Z" fill="#FA000F"/>
</svg>
