<svg width="18" height="19" viewBox="0 0 18 19" fill="none" xmlns="http://www.w3.org/2000/svg">
<mask id="mask0_1228_9441" style="mask-type:luminance" maskUnits="userSpaceOnUse" x="0" y="0" width="18" height="19">
<rect y="0.315918" width="18" height="18" fill="white"/>
</mask>
<g mask="url(#mask0_1228_9441)">
<path fill-rule="evenodd" clip-rule="evenodd" d="M16.3541 7.84704H15.75V7.81592H9V10.8159H13.2386C12.6203 12.5623 10.9586 13.8159 9 13.8159C6.51488 13.8159 4.5 11.801 4.5 9.31592C4.5 6.83079 6.51488 4.81592 9 4.81592C10.1471 4.81592 11.1908 5.24867 11.9854 5.95554L14.1067 3.83417C12.7673 2.58579 10.9755 1.81592 9 1.81592C4.85813 1.81592 1.5 5.17404 1.5 9.31592C1.5 13.4578 4.85813 16.8159 9 16.8159C13.1419 16.8159 16.5 13.4578 16.5 9.31592C16.5 8.81304 16.4482 8.32217 16.3541 7.84704Z" fill="#FFC107"/>
<path fill-rule="evenodd" clip-rule="evenodd" d="M2.36475 5.82504L4.82887 7.63217C5.49562 5.98142 7.11037 4.81592 9 4.81592C10.1471 4.81592 11.1907 5.24867 11.9854 5.95554L14.1067 3.83417C12.7672 2.58579 10.9755 1.81592 9 1.81592C6.11925 1.81592 3.621 3.44229 2.36475 5.82504Z" fill="#FF3D00"/>
<path fill-rule="evenodd" clip-rule="evenodd" d="M8.99999 16.8159C10.9372 16.8159 12.6975 16.0746 14.0284 14.8689L11.7071 12.9047C10.9541 13.4751 10.0181 13.8159 8.99999 13.8159C7.04924 13.8159 5.39287 12.5721 4.76887 10.8362L2.32312 12.7206C3.56437 15.1494 6.08512 16.8159 8.99999 16.8159Z" fill="#4CAF50"/>
<path fill-rule="evenodd" clip-rule="evenodd" d="M16.3541 7.84704H15.75V7.81592H9V10.8159H13.2386C12.9416 11.6548 12.402 12.3782 11.706 12.905C11.7064 12.9047 11.7068 12.9047 11.7071 12.9043L14.0284 14.8685C13.8641 15.0178 16.5 13.0659 16.5 9.31592C16.5 8.81304 16.4482 8.32217 16.3541 7.84704Z" fill="#1976D2"/>
</g>
</svg>
