<svg width="25" height="25" viewBox="0 0 25 25" fill="none" xmlns="http://www.w3.org/2000/svg">
<path d="M12.4122 0.046875C9.9573 0.046875 7.55753 0.774837 5.51635 2.13871C3.47518 3.50257 1.88428 5.44109 0.944827 7.70912C0.005378 9.97716 -0.240425 12.4728 0.238502 14.8806C0.717429 17.2883 1.89958 19.4999 3.63545 21.2358C5.37133 22.9717 7.58297 24.1538 9.9907 24.6328C12.3984 25.1117 14.8941 24.8659 17.1621 23.9264C19.4302 22.987 21.3687 21.3961 22.7325 19.3549C24.0964 17.3137 24.8244 14.914 24.8244 12.4591C24.8244 9.16715 23.5167 6.01006 21.1889 3.68232C18.8612 1.35458 15.7041 0.046875 12.4122 0.046875ZM13.6534 19.9064H11.171V17.4239H13.6534V19.9064ZM13.6534 14.9415H11.171V5.01175H13.6534V14.9415Z" fill="#1DBF41"/>
</svg>
