<svg width="19" height="19" viewBox="0 0 19 19" fill="none" xmlns="http://www.w3.org/2000/svg">
<path d="M9.44903 0.173828C7.67908 0.173828 5.94888 0.698679 4.47722 1.68201C3.00556 2.66534 1.85854 4.06299 1.18121 5.69821C0.503877 7.33343 0.326657 9.13278 0.671957 10.8687C1.01726 12.6047 1.86957 14.1992 3.12111 15.4508C4.37266 16.7023 5.96722 17.5546 7.70316 17.8999C9.4391 18.2452 11.2385 18.068 12.8737 17.3907C14.5089 16.7133 15.9065 15.5663 16.8899 14.0947C17.8732 12.623 18.3981 10.8928 18.3981 9.12285C18.3981 6.74942 17.4552 4.47321 15.7769 2.79494C14.0987 1.11667 11.8225 0.173828 9.44903 0.173828ZM10.3439 14.4923H8.55413V12.7025H10.3439V14.4923ZM10.3439 10.9127H8.55413V3.75344H10.3439V10.9127Z" fill="#FA000F"/>
</svg>
