<svg width="25" height="25" viewBox="0 0 25 25" fill="none" xmlns="http://www.w3.org/2000/svg">
<path d="M12.5257 0.171875C10.0708 0.171875 7.67105 0.899837 5.62988 2.26371C3.5887 3.62757 1.9978 5.56609 1.05835 7.83412C0.118903 10.1022 -0.126899 12.5978 0.352028 15.0056C0.830955 17.4133 2.0131 19.6249 3.74898 21.3608C5.48485 23.0967 7.69649 24.2788 10.1042 24.7578C12.512 25.2367 15.0076 24.9909 17.2757 24.0514C19.5437 23.112 21.4822 21.5211 22.8461 19.4799C24.2099 17.4387 24.9379 15.039 24.9379 12.5841C24.9379 9.29215 23.6302 6.13506 21.3025 3.80732C18.9747 1.47958 15.8176 0.171875 12.5257 0.171875ZM13.7669 20.0314H11.2845V17.5489H13.7669V20.0314ZM13.7669 15.0665H11.2845V5.13675H13.7669V15.0665Z" fill="#1DBF41"/>
</svg>
