<svg width="14" height="19" viewBox="0 0 14 19" fill="none" xmlns="http://www.w3.org/2000/svg">
<g id="Group">
<path id="Vector" fill-rule="evenodd" clip-rule="evenodd" d="M2.18624 10.4683C2.60566 10.9811 3.67295 12.8806 3.89967 13.832H10.0035C10.2302 12.8815 11.2962 10.9819 11.7156 10.4696C12.4323 9.59535 12.8835 8.53398 13.0157 7.41121C13.1461 6.2906 12.951 5.15614 12.4537 4.14349C11.9517 3.12332 11.1711 2.26612 10.2023 1.67102C9.22492 1.06987 8.09987 0.751857 6.95244 0.752396C5.80274 0.752396 4.67616 1.07067 3.7026 1.67015C2.73353 2.26502 1.95265 3.12208 1.4503 4.14218C0.952707 5.15444 0.757151 6.28858 0.887005 7.40903C1.01736 8.5282 1.46774 9.58895 2.18624 10.4683ZM7.38755 4.24028L4.77164 8.16415H6.51558V10.7801L9.13149 6.8562H7.38755V4.24028Z" fill="url(#paint0_linear_768_3805)"/>
<path id="Vector_2" d="M3.89968 15.1399C3.89968 15.0243 3.94561 14.9134 4.02738 14.8316C4.10914 14.7499 4.22004 14.7039 4.33567 14.7039H9.5675C9.68313 14.7039 9.79402 14.7499 9.87578 14.8316C9.95755 14.9134 10.0035 15.0243 10.0035 15.1399C10.0035 15.2556 9.95755 15.3665 9.87578 15.4482C9.79402 15.53 9.68313 15.5759 9.5675 15.5759H4.33567C4.22004 15.5759 4.10914 15.53 4.02738 15.4482C3.94561 15.3665 3.89968 15.2556 3.89968 15.1399ZM10.0035 16.4479H3.89968V17.3199C3.89968 17.5511 3.99155 17.7729 4.15508 17.9364C4.3186 18.1 4.54039 18.1918 4.77165 18.1918H9.13151C9.36277 18.1918 9.58456 18.1 9.74809 17.9364C9.91161 17.7729 10.0035 17.5511 10.0035 17.3199V16.4479Z" fill="url(#paint1_linear_768_3805)"/>
</g>
<defs>
<linearGradient id="paint0_linear_768_3805" x1="6.95151" y1="0.752396" x2="8.46567" y2="24.4466" gradientUnits="userSpaceOnUse">
<stop stop-color="#28C0F1"/>
<stop offset="1" stop-color="#22347F"/>
</linearGradient>
<linearGradient id="paint1_linear_768_3805" x1="6.95158" y1="14.7039" x2="7.16755" y2="21.0408" gradientUnits="userSpaceOnUse">
<stop stop-color="#28C0F1"/>
<stop offset="1" stop-color="#22347F"/>
</linearGradient>
</defs>
</svg>
