<svg width="130" height="133" viewBox="0 0 130 133" fill="none" xmlns="http://www.w3.org/2000/svg">
<rect x="0.5" y="0.826172" width="129" height="131" rx="17.5" fill="#EDF2F7" stroke="#4C535F" stroke-dasharray="5 5"/>
<path d="M35.5449 89.5062C34.8769 89.5062 34.2869 89.3682 33.7749 89.0922C33.2629 88.8162 32.8609 88.4302 32.5689 87.9342C32.2809 87.4342 32.1369 86.8482 32.1369 86.1762V80.6922L33.2169 80.6862V86.0862C33.2169 86.4942 33.2849 86.8502 33.4209 87.1542C33.5609 87.4542 33.7449 87.7042 33.9729 87.9042C34.2009 88.1042 34.4509 88.2542 34.7229 88.3542C34.9989 88.4502 35.2729 88.4982 35.5449 88.4982C35.8209 88.4982 36.0969 88.4482 36.3729 88.3482C36.6489 88.2482 36.8989 88.1002 37.1229 87.9042C37.3509 87.7042 37.5329 87.4522 37.6689 87.1482C37.8049 86.8442 37.8729 86.4902 37.8729 86.0862V80.6862H38.9529V86.1762C38.9529 86.8442 38.8069 87.4282 38.5149 87.9282C38.2269 88.4282 37.8269 88.8162 37.3149 89.0922C36.8029 89.3682 36.2129 89.5062 35.5449 89.5062ZM43.609 89.5062C43.001 89.5062 42.489 89.3562 42.073 89.0562C41.657 88.7522 41.341 88.3422 41.125 87.8262C40.913 87.3062 40.807 86.7242 40.807 86.0802C40.807 85.4282 40.913 84.8442 41.125 84.3282C41.341 83.8122 41.657 83.4062 42.073 83.1102C42.493 82.8142 43.007 82.6662 43.615 82.6662C44.215 82.6662 44.731 82.8162 45.163 83.1162C45.599 83.4122 45.933 83.8182 46.165 84.3342C46.397 84.8502 46.513 85.4322 46.513 86.0802C46.513 86.7282 46.397 87.3102 46.165 87.8262C45.933 88.3422 45.599 88.7522 45.163 89.0562C44.731 89.3562 44.213 89.5062 43.609 89.5062ZM40.627 92.2062V82.8462H41.581V87.6162H41.701V92.2062H40.627ZM43.477 88.5282C43.905 88.5282 44.259 88.4202 44.539 88.2042C44.819 87.9882 45.029 87.6962 45.169 87.3282C45.309 86.9562 45.379 86.5402 45.379 86.0802C45.379 85.6242 45.309 85.2122 45.169 84.8442C45.033 84.4762 44.821 84.1842 44.533 83.9682C44.249 83.7522 43.887 83.6442 43.447 83.6442C43.027 83.6442 42.679 83.7482 42.403 83.9562C42.127 84.1602 41.921 84.4462 41.785 84.8142C41.649 85.1782 41.581 85.6002 41.581 86.0802C41.581 86.5522 41.647 86.9742 41.779 87.3462C41.915 87.7142 42.123 88.0042 42.403 88.2162C42.683 88.4242 43.041 88.5282 43.477 88.5282ZM47.9483 89.3262V80.5062H49.0163V89.3262H47.9483ZM53.5766 89.5062C52.9326 89.5062 52.3766 89.3602 51.9086 89.0682C51.4446 88.7762 51.0866 88.3722 50.8346 87.8562C50.5826 87.3402 50.4566 86.7482 50.4566 86.0802C50.4566 85.4002 50.5846 84.8042 50.8406 84.2922C51.0966 83.7802 51.4586 83.3822 51.9266 83.0982C52.3946 82.8102 52.9446 82.6662 53.5766 82.6662C54.2246 82.6662 54.7826 82.8122 55.2506 83.1042C55.7186 83.3922 56.0766 83.7942 56.3246 84.3102C56.5766 84.8222 56.7026 85.4122 56.7026 86.0802C56.7026 86.7562 56.5766 87.3522 56.3246 87.8682C56.0726 88.3802 55.7126 88.7822 55.2446 89.0742C54.7766 89.3622 54.2206 89.5062 53.5766 89.5062ZM53.5766 88.4922C54.2486 88.4922 54.7486 88.2682 55.0766 87.8202C55.4046 87.3722 55.5686 86.7922 55.5686 86.0802C55.5686 85.3482 55.4026 84.7662 55.0706 84.3342C54.7386 83.8982 54.2406 83.6802 53.5766 83.6802C53.1246 83.6802 52.7526 83.7822 52.4606 83.9862C52.1686 84.1902 51.9506 84.4722 51.8066 84.8322C51.6626 85.1922 51.5906 85.6082 51.5906 86.0802C51.5906 86.8082 51.7586 87.3922 52.0946 87.8322C52.4306 88.2722 52.9246 88.4922 53.5766 88.4922ZM59.8656 89.5062C59.3816 89.5062 58.9756 89.4182 58.6476 89.2422C58.3236 89.0622 58.0776 88.8262 57.9096 88.5342C57.7456 88.2422 57.6636 87.9222 57.6636 87.5742C57.6636 87.2342 57.7276 86.9402 57.8556 86.6922C57.9876 86.4402 58.1716 86.2322 58.4076 86.0682C58.6436 85.9002 58.9256 85.7682 59.2536 85.6722C59.5616 85.5882 59.9056 85.5162 60.2856 85.4562C60.6696 85.3922 61.0576 85.3342 61.4496 85.2822C61.8416 85.2302 62.2076 85.1802 62.5476 85.1322L62.1636 85.3542C62.1756 84.7782 62.0596 84.3522 61.8156 84.0762C61.5756 83.8002 61.1596 83.6622 60.5676 83.6622C60.1756 83.6622 59.8316 83.7522 59.5356 83.9322C59.2436 84.1082 59.0376 84.3962 58.9176 84.7962L57.9036 84.4902C58.0596 83.9222 58.3616 83.4762 58.8096 83.1522C59.2576 82.8282 59.8476 82.6662 60.5796 82.6662C61.1676 82.6662 61.6716 82.7722 62.0916 82.9842C62.5156 83.1922 62.8196 83.5082 63.0036 83.9322C63.0956 84.1322 63.1536 84.3502 63.1776 84.5862C63.2016 84.8182 63.2136 85.0622 63.2136 85.3182V89.3262H62.2656V87.7722L62.4876 87.9162C62.2436 88.4402 61.9016 88.8362 61.4616 89.1042C61.0256 89.3722 60.4936 89.5062 59.8656 89.5062ZM60.0276 88.6122C60.4116 88.6122 60.7436 88.5442 61.0236 88.4082C61.3076 88.2682 61.5356 88.0862 61.7076 87.8622C61.8796 87.6342 61.9916 87.3862 62.0436 87.1182C62.1036 86.9182 62.1356 86.6962 62.1396 86.4522C62.1476 86.2042 62.1516 86.0142 62.1516 85.8822L62.5236 86.0442C62.1756 86.0922 61.8336 86.1382 61.4976 86.1822C61.1616 86.2262 60.8436 86.2742 60.5436 86.3262C60.2436 86.3742 59.9736 86.4322 59.7336 86.5002C59.5576 86.5562 59.3916 86.6282 59.2356 86.7162C59.0836 86.8042 58.9596 86.9182 58.8636 87.0582C58.7716 87.1942 58.7256 87.3642 58.7256 87.5682C58.7256 87.7442 58.7696 87.9122 58.8576 88.0722C58.9496 88.2322 59.0896 88.3622 59.2776 88.4622C59.4696 88.5622 59.7196 88.6122 60.0276 88.6122ZM67.3176 89.5062C66.7136 89.5062 66.1956 89.3562 65.7636 89.0562C65.3316 88.7522 64.9976 88.3422 64.7616 87.8262C64.5296 87.3102 64.4136 86.7282 64.4136 86.0802C64.4136 85.4322 64.5296 84.8502 64.7616 84.3342C64.9976 83.8182 65.3316 83.4122 65.7636 83.1162C66.1956 82.8162 66.7116 82.6662 67.3116 82.6662C67.9236 82.6662 68.4376 82.8142 68.8536 83.1102C69.2696 83.4062 69.5836 83.8122 69.7956 84.3282C70.0116 84.8442 70.1196 85.4282 70.1196 86.0802C70.1196 86.7242 70.0116 87.3062 69.7956 87.8262C69.5836 88.3422 69.2696 88.7522 68.8536 89.0562C68.4376 89.3562 67.9256 89.5062 67.3176 89.5062ZM67.4496 88.5282C67.8856 88.5282 68.2436 88.4242 68.5236 88.2162C68.8036 88.0042 69.0096 87.7142 69.1416 87.3462C69.2776 86.9742 69.3456 86.5522 69.3456 86.0802C69.3456 85.6002 69.2776 85.1782 69.1416 84.8142C69.0096 84.4462 68.8056 84.1602 68.5296 83.9562C68.2536 83.7482 67.9036 83.6442 67.4796 83.6442C67.0396 83.6442 66.6756 83.7522 66.3876 83.9682C66.1036 84.1842 65.8916 84.4762 65.7516 84.8442C65.6156 85.2122 65.5476 85.6242 65.5476 86.0802C65.5476 86.5402 65.6176 86.9562 65.7576 87.3282C65.8976 87.6962 66.1076 87.9882 66.3876 88.2042C66.6716 88.4202 67.0256 88.5282 67.4496 88.5282ZM69.3456 89.3262V84.5562H69.2256V80.6862H70.2996V89.3262H69.3456ZM75.283 92.2062L76.537 88.7982L76.555 89.8062L73.723 82.8462H74.845L77.065 88.4442H76.681L78.763 82.8462H79.849L76.321 92.2062H75.283ZM83.3656 89.5062C82.7216 89.5062 82.1656 89.3602 81.6976 89.0682C81.2336 88.7762 80.8756 88.3722 80.6236 87.8562C80.3716 87.3402 80.2456 86.7482 80.2456 86.0802C80.2456 85.4002 80.3736 84.8042 80.6296 84.2922C80.8856 83.7802 81.2476 83.3822 81.7156 83.0982C82.1836 82.8102 82.7336 82.6662 83.3656 82.6662C84.0136 82.6662 84.5716 82.8122 85.0396 83.1042C85.5076 83.3922 85.8656 83.7942 86.1136 84.3102C86.3656 84.8222 86.4916 85.4122 86.4916 86.0802C86.4916 86.7562 86.3656 87.3522 86.1136 87.8682C85.8616 88.3802 85.5016 88.7822 85.0336 89.0742C84.5656 89.3622 84.0096 89.5062 83.3656 89.5062ZM83.3656 88.4922C84.0376 88.4922 84.5376 88.2682 84.8656 87.8202C85.1936 87.3722 85.3576 86.7922 85.3576 86.0802C85.3576 85.3482 85.1916 84.7662 84.8596 84.3342C84.5276 83.8982 84.0296 83.6802 83.3656 83.6802C82.9136 83.6802 82.5416 83.7822 82.2496 83.9862C81.9576 84.1902 81.7396 84.4722 81.5956 84.8322C81.4516 85.1922 81.3796 85.6082 81.3796 86.0802C81.3796 86.8082 81.5476 87.3922 81.8836 87.8322C82.2196 88.2722 82.7136 88.4922 83.3656 88.4922ZM90.2727 89.4942C89.8567 89.4942 89.4987 89.4282 89.1987 89.2962C88.9027 89.1642 88.6567 88.9882 88.4607 88.7682C88.2647 88.5482 88.1107 88.3042 87.9987 88.0362C87.8867 87.7682 87.8067 87.4942 87.7587 87.2142C87.7147 86.9342 87.6927 86.6722 87.6927 86.4282V82.8462H88.7727V86.0922C88.7727 86.3962 88.8007 86.6902 88.8567 86.9742C88.9127 87.2582 89.0067 87.5142 89.1387 87.7422C89.2747 87.9702 89.4547 88.1502 89.6787 88.2822C89.9067 88.4142 90.1907 88.4802 90.5307 88.4802C90.7987 88.4802 91.0427 88.4342 91.2627 88.3422C91.4827 88.2502 91.6707 88.1142 91.8267 87.9342C91.9827 87.7502 92.1027 87.5182 92.1867 87.2382C92.2707 86.9582 92.3127 86.6322 92.3127 86.2602L93.0147 86.4762C93.0147 87.1002 92.9007 87.6382 92.6727 88.0902C92.4487 88.5422 92.1307 88.8902 91.7187 89.1342C91.3107 89.3742 90.8287 89.4942 90.2727 89.4942ZM92.4327 89.3262V87.5922H92.3127V82.8462H93.3867V89.3262H92.4327ZM95.0666 89.3262V82.8462H96.0206V84.4122L95.8646 84.2082C95.9406 84.0082 96.0386 83.8242 96.1586 83.6562C96.2826 83.4882 96.4206 83.3502 96.5726 83.2422C96.7406 83.1062 96.9306 83.0022 97.1426 82.9302C97.3546 82.8582 97.5706 82.8162 97.7906 82.8042C98.0106 82.7882 98.2166 82.8022 98.4086 82.8462V83.8482C98.1846 83.7882 97.9386 83.7722 97.6706 83.8002C97.4026 83.8282 97.1546 83.9262 96.9266 84.0942C96.7186 84.2422 96.5566 84.4222 96.4406 84.6342C96.3286 84.8462 96.2506 85.0762 96.2066 85.3242C96.1626 85.5682 96.1406 85.8182 96.1406 86.0742V89.3262H95.0666ZM52.0523 105.506C51.4443 105.506 50.9323 105.356 50.5163 105.056C50.1003 104.752 49.7843 104.342 49.5683 103.826C49.3563 103.306 49.2503 102.724 49.2503 102.08C49.2503 101.428 49.3563 100.844 49.5683 100.328C49.7843 99.8122 50.1003 99.4062 50.5163 99.1102C50.9363 98.8142 51.4503 98.6662 52.0583 98.6662C52.6583 98.6662 53.1743 98.8162 53.6063 99.1162C54.0423 99.4122 54.3763 99.8182 54.6083 100.334C54.8403 100.85 54.9563 101.432 54.9563 102.08C54.9563 102.728 54.8403 103.31 54.6083 103.826C54.3763 104.342 54.0423 104.752 53.6063 105.056C53.1743 105.356 52.6563 105.506 52.0523 105.506ZM49.0703 108.206V98.8462H50.0243V103.616H50.1443V108.206H49.0703ZM51.9203 104.528C52.3483 104.528 52.7023 104.42 52.9823 104.204C53.2623 103.988 53.4723 103.696 53.6123 103.328C53.7523 102.956 53.8223 102.54 53.8223 102.08C53.8223 101.624 53.7523 101.212 53.6123 100.844C53.4763 100.476 53.2643 100.184 52.9763 99.9682C52.6923 99.7522 52.3303 99.6442 51.8903 99.6442C51.4703 99.6442 51.1223 99.7482 50.8463 99.9562C50.5703 100.16 50.3643 100.446 50.2283 100.814C50.0923 101.178 50.0243 101.6 50.0243 102.08C50.0243 102.552 50.0903 102.974 50.2223 103.346C50.3583 103.714 50.5663 104.004 50.8463 104.216C51.1263 104.424 51.4843 104.528 51.9203 104.528ZM60.8856 105.326V102.08C60.8856 101.772 60.8576 101.476 60.8016 101.192C60.7496 100.908 60.6556 100.654 60.5196 100.43C60.3876 100.202 60.2076 100.022 59.9796 99.8902C59.7556 99.7582 59.4716 99.6922 59.1276 99.6922C58.8596 99.6922 58.6156 99.7382 58.3956 99.8302C58.1796 99.9182 57.9936 100.054 57.8376 100.238C57.6816 100.422 57.5596 100.654 57.4716 100.934C57.3876 101.21 57.3456 101.536 57.3456 101.912L56.6436 101.696C56.6436 101.068 56.7556 100.53 56.9796 100.082C57.2076 99.6302 57.5256 99.2842 57.9336 99.0442C58.3456 98.8002 58.8296 98.6782 59.3856 98.6782C59.8056 98.6782 60.1636 98.7442 60.4596 98.8762C60.7556 99.0082 61.0016 99.1842 61.1976 99.4042C61.3936 99.6202 61.5476 99.8642 61.6596 100.136C61.7716 100.404 61.8496 100.678 61.8936 100.958C61.9416 101.234 61.9656 101.496 61.9656 101.744V105.326H60.8856ZM56.2656 105.326V96.6862H57.2256V101.456H57.3456V105.326H56.2656ZM66.2855 105.506C65.6415 105.506 65.0855 105.36 64.6175 105.068C64.1535 104.776 63.7955 104.372 63.5435 103.856C63.2915 103.34 63.1655 102.748 63.1655 102.08C63.1655 101.4 63.2935 100.804 63.5495 100.292C63.8055 99.7802 64.1675 99.3822 64.6355 99.0982C65.1035 98.8102 65.6535 98.6662 66.2855 98.6662C66.9335 98.6662 67.4915 98.8122 67.9595 99.1042C68.4275 99.3922 68.7855 99.7942 69.0335 100.31C69.2855 100.822 69.4115 101.412 69.4115 102.08C69.4115 102.756 69.2855 103.352 69.0335 103.868C68.7815 104.38 68.4215 104.782 67.9535 105.074C67.4855 105.362 66.9295 105.506 66.2855 105.506ZM66.2855 104.492C66.9575 104.492 67.4575 104.268 67.7855 103.82C68.1135 103.372 68.2775 102.792 68.2775 102.08C68.2775 101.348 68.1115 100.766 67.7795 100.334C67.4475 99.8982 66.9495 99.6802 66.2855 99.6802C65.8335 99.6802 65.4615 99.7822 65.1695 99.9862C64.8775 100.19 64.6595 100.472 64.5155 100.832C64.3715 101.192 64.2995 101.608 64.2995 102.08C64.2995 102.808 64.4675 103.392 64.8035 103.832C65.1395 104.272 65.6335 104.492 66.2855 104.492ZM74.3506 105.326C73.9666 105.402 73.5866 105.432 73.2106 105.416C72.8386 105.404 72.5066 105.33 72.2146 105.194C71.9226 105.054 71.7006 104.838 71.5486 104.546C71.4206 104.29 71.3506 104.032 71.3386 103.772C71.3306 103.508 71.3266 103.21 71.3266 102.878V97.0462H72.3946V102.83C72.3946 103.094 72.3966 103.32 72.4006 103.508C72.4086 103.696 72.4506 103.858 72.5266 103.994C72.6706 104.25 72.8986 104.4 73.2106 104.444C73.5266 104.488 73.9066 104.476 74.3506 104.408V105.326ZM70.0126 99.7282V98.8462H74.3506V99.7282H70.0126ZM78.1566 105.506C77.5126 105.506 76.9566 105.36 76.4886 105.068C76.0246 104.776 75.6666 104.372 75.4146 103.856C75.1626 103.34 75.0366 102.748 75.0366 102.08C75.0366 101.4 75.1646 100.804 75.4206 100.292C75.6766 99.7802 76.0386 99.3822 76.5066 99.0982C76.9746 98.8102 77.5246 98.6662 78.1566 98.6662C78.8046 98.6662 79.3626 98.8122 79.8306 99.1042C80.2986 99.3922 80.6566 99.7942 80.9046 100.31C81.1566 100.822 81.2826 101.412 81.2826 102.08C81.2826 102.756 81.1566 103.352 80.9046 103.868C80.6526 104.38 80.2926 104.782 79.8246 105.074C79.3566 105.362 78.8006 105.506 78.1566 105.506ZM78.1566 104.492C78.8286 104.492 79.3286 104.268 79.6566 103.82C79.9846 103.372 80.1486 102.792 80.1486 102.08C80.1486 101.348 79.9826 100.766 79.6506 100.334C79.3186 99.8982 78.8206 99.6802 78.1566 99.6802C77.7046 99.6802 77.3326 99.7822 77.0406 99.9862C76.7486 100.19 76.5306 100.472 76.3866 100.832C76.2426 101.192 76.1706 101.608 76.1706 102.08C76.1706 102.808 76.3386 103.392 76.6746 103.832C77.0106 104.272 77.5046 104.492 78.1566 104.492Z" fill="#4C535F"/>
<path fill-rule="evenodd" clip-rule="evenodd" d="M56.9999 42.1905C57.74 41.6779 58.61 41.4043 59.5 41.4043C60.0714 41.4043 60.5346 41.8845 60.5346 42.4769C60.5346 43.0693 60.0714 43.5495 59.5 43.5495C59.0193 43.5495 58.5493 43.6973 58.1496 43.9742C57.7498 44.2511 57.4383 44.6447 57.2543 45.1051C57.0703 45.5656 57.0222 46.0723 57.116 46.5611C57.2098 47.0499 57.4413 47.4989 57.7812 47.8513C58.1212 48.2038 58.5543 48.4438 59.0258 48.541C59.4973 48.6382 59.986 48.5883 60.4302 48.3976C60.8744 48.2069 61.254 47.8839 61.5211 47.4695C61.7882 47.0551 61.9307 46.5679 61.9307 46.0695C61.9307 45.4771 62.3939 44.9969 62.9654 44.9969C63.5368 44.9969 64 45.4771 64 46.0695C64 46.9922 63.7361 47.8941 63.2416 48.6613C62.7471 49.4285 62.0443 50.0264 61.2221 50.3795C60.3998 50.7326 59.495 50.825 58.6221 50.645C57.7492 50.465 56.9474 50.0207 56.318 49.3683C55.6887 48.7158 55.2601 47.8846 55.0865 46.9796C54.9128 46.0747 55.0019 45.1366 55.3425 44.2842C55.6831 43.4317 56.2599 42.7031 56.9999 42.1905Z" fill="#8D98AA"/>
<path fill-rule="evenodd" clip-rule="evenodd" d="M81.9802 47.625C82.5434 47.625 83 48.1082 83 48.7042V57.7406C83 62.3633 82.1375 65.8799 79.9439 68.2144C77.7489 70.5504 74.4407 71.4693 70.094 71.4693H59.906C55.5606 71.4693 52.2526 70.5507 50.0572 68.215C47.8632 65.8808 47 62.3641 47 57.7406V54.1073C47 53.5113 47.4566 53.0281 48.0198 53.0281C48.5829 53.0281 49.0395 53.5113 49.0395 54.1073V57.7406C49.0395 62.1534 49.8759 64.9615 51.5032 66.6929C53.1292 68.4229 55.7643 69.3109 59.906 69.3109H70.094C74.2371 69.3109 76.8721 68.4225 78.4977 66.6925C80.1248 64.961 80.9605 62.1528 80.9605 57.7406V48.7042C80.9605 48.1082 81.4171 47.625 81.9802 47.625Z" fill="#8D98AA"/>
<path fill-rule="evenodd" clip-rule="evenodd" d="M50.0997 37.3356C52.3242 35.0476 55.6763 34.1475 60.0827 34.1475H66.9716C67.5396 34.1475 68 34.621 68 35.2052C68 35.7894 67.5396 36.263 66.9716 36.263H60.0827C55.8792 36.263 53.2042 37.1343 51.5541 38.8315C49.9039 40.5288 49.0568 43.2802 49.0568 47.6036C49.0568 48.1878 48.5964 48.6614 48.0284 48.6614C47.4604 48.6614 47 48.1878 47 47.6036C47 43.0714 47.8751 39.6237 50.0997 37.3356Z" fill="#8D98AA"/>
<path fill-rule="evenodd" clip-rule="evenodd" d="M70 40.3678C70 39.7952 70.4792 39.3311 71.0704 39.3311H80.9296C81.5208 39.3311 82 39.7952 82 40.3678C82 40.9403 81.5208 41.4045 80.9296 41.4045H71.0704C70.4792 41.4045 70 40.9403 70 40.3678Z" fill="#8D98AA"/>
<path fill-rule="evenodd" clip-rule="evenodd" d="M76 34.1475C76.5523 34.1475 77 34.6443 77 35.2572V45.4782C77 46.0911 76.5523 46.588 76 46.588C75.4477 46.588 75 46.0911 75 45.4782V35.2572C75 34.6443 75.4477 34.1475 76 34.1475Z" fill="#8D98AA"/>
<path fill-rule="evenodd" clip-rule="evenodd" d="M75.0496 54.5446L67.9723 60.896L67.9535 60.9124C67.0931 61.6479 66.0135 62.0499 64.8993 62.0499C63.7851 62.0499 62.7055 61.6479 61.8451 60.9124C61.8358 60.9045 61.8267 60.8964 61.8177 60.8881L61.2713 60.3867C60.8139 60.004 60.2519 59.7804 59.6651 59.7479C59.0746 59.7152 58.4894 59.8776 57.9934 60.2117L49.5972 66.103C49.1286 66.4319 48.492 66.3038 48.1755 65.8169C47.859 65.33 47.9823 64.6687 48.451 64.3398L56.8681 58.4337C57.7295 57.8501 58.7473 57.5663 59.7741 57.6232C60.801 57.6801 61.7839 58.0749 62.5806 58.7504C62.5909 58.7591 62.6011 58.7681 62.6111 58.7773L63.1591 59.2803C63.6508 59.6955 64.2653 59.9223 64.8993 59.9223C65.5351 59.9223 66.1512 59.6942 66.6436 59.2768L73.7209 52.9255L73.7397 52.909C74.6002 52.1736 75.6797 51.7715 76.7939 51.7715C77.9081 51.7715 78.9877 52.1736 79.8481 52.909L79.867 52.9255L82.6454 55.4191C83.0734 55.8032 83.1206 56.475 82.7509 56.9196C82.3812 57.3643 81.7345 57.4133 81.3066 57.0292L78.5382 54.5446C78.0458 54.1272 77.4297 53.8992 76.7939 53.8992C76.1582 53.8992 75.5421 54.1272 75.0496 54.5446Z" fill="#8D98AA"/>
</svg>
