<svg width="27" height="23" viewBox="0 0 27 23" fill="none" xmlns="http://www.w3.org/2000/svg">
<path id="Vector" d="M4.13545 13.2785V16.8339C4.13545 17.7575 4.64155 18.6179 5.45132 19.0607L11.7776 22.5149C12.5368 22.9325 13.4478 22.9325 14.2069 22.5149L20.5333 19.0607C21.343 18.6179 21.8491 17.7575 21.8491 16.8339V13.2785L14.2069 17.4539C13.4478 17.8714 12.5368 17.8714 11.7776 17.4539L4.13545 13.2785ZM11.7776 1.05606L1.11147 6.87627C0.238438 7.35707 0.238438 8.62233 1.11147 9.10313L11.7776 14.9233C12.5368 15.3409 13.4478 15.3409 14.2069 14.9233L24.3797 9.36884V16.8465C24.3797 17.5424 24.949 18.1118 25.6449 18.1118C26.3408 18.1118 26.9102 17.5424 26.9102 16.8465V8.7362C26.9102 8.26806 26.6571 7.85052 26.2522 7.62277L14.2069 1.05606C13.8331 0.856685 13.416 0.752396 12.9923 0.752396C12.5686 0.752396 12.1515 0.856685 11.7776 1.05606Z" fill="url(#paint0_linear_768_3827)"/>
<defs>
<linearGradient id="paint0_linear_768_3827" x1="17.3025" y1="-4.34681" x2="5.57128" y2="36.4036" gradientUnits="userSpaceOnUse">
<stop stop-color="#28C0F1"/>
<stop offset="0.803858" stop-color="#22347F"/>
</linearGradient>
</defs>
</svg>
